PathFileType	4	(X/Y/Z)	C:\Users\WrightLab\Desktop\Jo\P5V14.trc
DataRate	CameraRate	NumFrames	NumMarkers	Units	OrigDataRate	OrigDataStartFrame	OrigNumFrames
100.00	100.00	       9	19	mm	100.00	144	       575
Frame#	Time	Headset_Front			Headset_Back			Headset_Left			Headset_Right			Left_Shoulder			Right_Shoulder			Sternum			C7			Left Elbow			Right Elbow			Left Wrist			Right Wrist			Left ASIS			Right ASIS			S2			Left Knee			Right Knee			Left Ankle			Right Ankle			
		X1	Y1	Z1	X2	Y2	Z2	X3	Y3	Z3	X4	Y4	Z4	X5	Y5	Z5	X6	Y6	Z6	X7	Y7	Z7	X8	Y8	Z8	X9	Y9	Z9	X10	Y10	Z10	X11	Y11	Z11	X12	Y12	Z12	X13	Y13	Z13	X14	Y14	Z14	X15	Y15	Z15	X16	Y16	Z16	X17	Y17	Z17	X18	Y18	Z18	X19	Y19	Z19	

144	1.430	132.31973	1737.68018	-630.33319	266.76535	1648.88574	-554.94568							322.87991	1488.49915	-759.67853	-4.34713	1397.18958	-514.36902	222.55502	1290.15125	-575.67102	73.30373	1489.77563	-722.74316	399.41995	1185.63391	-808.57898	-132.44153	1145.58350	-581.44495	460.49774	989.56372	-683.26001	-43.38107	1002.77606	-399.15536	339.01035	910.74786	-704.96027	136.77510	907.00720	-516.59027	50.35998	959.19965	-849.27039	242.86508	461.30606	-818.77161	263.84329	501.15308	-533.99854	2.19734	102.68011	-962.77795	302.59412	85.72279	-600.30627	
145	1.440	135.03827	1738.22864	-623.27026	269.84491	1650.22900	-546.13055							326.79575	1489.51013	-751.76727	0.41076	1396.72949	-508.09299	227.12764	1291.05896	-566.70392	77.33561	1490.00610	-716.32758	405.17520	1187.02905	-801.33099	-127.09478	1144.81079	-576.44366	466.13245	989.82019	-675.60718	-39.32783	1001.35754	-393.88525	346.01355	911.62018	-695.41827	143.11958	906.84045	-507.66284	59.28057	956.57483	-842.56049	249.52232	461.55276	-812.44714	272.57458	506.22305	-527.55933	6.54914	106.30037	-961.30383	303.10901	86.07122	-599.73694	
146	1.450	137.57066	1739.13928	-616.54431	272.50848	1651.85291	-539.38507							331.34915	1490.50720	-744.21240	2.61754	1396.75305	-502.73236	231.84018	1293.27185	-558.59656	81.74301	1489.33008	-708.70465	410.75006	1188.00952	-792.80988	-121.85759	1144.19153	-572.13794	472.01935	990.72528	-667.81494	-36.07209	1000.48236	-388.40784	353.07376	913.04401	-684.03345	149.17168	907.20941	-500.81512	67.17368	955.70422	-836.99811	255.98602	461.76379	-805.09924	281.09186	510.77805	-520.91180	12.07359	111.66260	-958.27551	303.13498	86.04750	-599.72406	
147	1.460	140.38705	1739.80823	-608.82874	275.39554	1653.25598	-531.18994							335.75073	1491.56934	-736.56586	6.04506	1397.51733	-496.54919	235.40395	1294.40784	-550.93994	85.91412	1489.95349	-702.27985	416.44614	1189.45264	-784.49158	-116.49329	1143.93579	-567.48431	478.20328	991.72229	-660.95117	-33.21917	999.17694	-382.76834	364.95776	916.39124	-675.04303	154.70302	908.45544	-496.04175	75.49002	955.01764	-831.34863	263.25644	462.24493	-796.40857	288.35406	513.35248	-514.17688	19.01984	117.38818	-955.40826	302.58783	86.70885	-597.54688	
148	1.470	143.16515	1740.69226	-601.41327	278.21655	1654.78918	-523.23511							339.96313	1493.10547	-729.15918	9.31090	1399.02136	-489.85989	240.04254	1295.90845	-542.73987	90.60462	1490.19434	-695.64734	421.83878	1191.58630	-776.18097	-110.38970	1143.98730	-562.69830	483.68219	992.84442	-653.83783	-30.50920	998.99603	-377.04089	370.09909	915.72711	-664.76843	160.48320	909.54974	-487.98892	83.92890	954.86310	-826.15619	272.06360	463.86887	-788.17670	295.21820	516.27386	-506.86801	27.95124	124.09328	-951.09210	301.79248	86.70787	-596.77618	
149	1.480	145.90907	1741.73315	-594.74756	280.82941	1656.30750	-516.08356							344.13773	1494.41797	-720.57245	11.72089	1400.23083	-482.81940	243.59138	1297.92749	-534.64496	95.03103	1490.44141	-689.04022	426.91385	1193.23767	-768.24188	-104.61694	1144.33313	-557.76355	489.70132	994.00458	-646.55322	-27.38836	998.08356	-371.80923	378.66022	917.88635	-656.67670	165.39290	910.87872	-483.20825	92.85199	955.35626	-821.07452	281.00845	465.51135	-778.25757	299.45819	519.02173	-499.97226	37.69716	127.86565	-946.67017	301.89609	87.05770	-596.21967	
150	1.490	148.55389	1742.74414	-588.39008	283.47424	1657.62231	-509.21899							348.23389	1495.90222	-712.61810	14.74000	1401.77307	-476.30667	246.77403	1299.09119	-525.55548	99.18201	1491.13269	-682.47449	432.65878	1194.94751	-760.07465	-99.15959	1144.71375	-552.95691	495.62820	995.39374	-639.89691	-24.51961	997.56622	-367.26941				170.39195	912.59210	-474.88455	101.67734	955.82269	-816.01306	295.01736	469.38309	-770.63776	303.18854	520.62134	-493.63867	51.30637	133.72701	-940.85468	302.32574	86.77663	-596.19427	
151	1.500	151.24133	1743.19995	-582.23193	286.18869	1658.85315	-501.77850							352.79715	1496.93274	-704.13690	17.29487	1402.89490	-470.34927	251.29120	1300.95703	-516.79932	103.92625	1491.47009	-675.70050	438.45547	1196.46997	-752.18597	-94.04245	1144.95728	-548.14258	501.63736	997.03339	-632.87646	-21.83762	997.77612	-361.98758				174.34807	913.66656	-469.75928	110.48605	956.50909	-810.21021	311.13440	471.61002	-763.25458	305.50192	522.75995	-486.84180	64.04124	140.21098	-936.29181	302.32574	86.77663	-596.19427	
152	1.510	153.94664	1743.33569	-576.20435	288.67865	1659.98755	-494.84558							357.08560	1498.50366	-695.60590	20.47146	1403.67322	-463.82437	253.73354	1301.81348	-508.66681	108.13756	1492.05212	-669.30273	443.17569	1198.72034	-745.54175	-89.02140	1145.41223	-544.47180	507.54144	998.42432	-625.50018	-18.92994	997.29205	-357.80417				178.31615	914.07953	-462.52261	119.11790	957.24713	-803.88123	328.29843	472.10446	-756.02673	307.08679	524.25287	-479.87943	77.42450	146.95097	-931.31482	302.56784	87.21217	-595.97339	
